<?xml version="1.0" encoding="UTF-8"?>
<svg version="1.1" xmlns="http://www.w3.org/2000/svg" width="4500" height="4500">
<path d="M0 0 C109.56 0 219.12 0 332 0 C332 399.63 332 799.26 332 1211 C222.44 1211 112.88 1211 0 1211 C0 811.37 0 411.74 0 0 Z " fill="#FFFFFF" transform="translate(2554,1240)"/>
<path d="M0 0 C109.23 0 218.46 0 331 0 C331 263.34 331 526.68 331 798 C221.77 798 112.54 798 0 798 C0 534.66 0 271.32 0 0 Z " fill="#FFFFFF" transform="translate(1646,1653)"/>
<path d="M0 0 C109.56 0 219.12 0 332 0 C332 467.61 332 935.22 332 1417 C222.44 1417 112.88 1417 0 1417 C0 949.39 0 481.78 0 0 Z M49 48 C49 483.6 49 919.2 49 1368 C126.55 1368 204.1 1368 284 1368 C284 932.4 284 496.8 284 48 C206.45 48 128.9 48 49 48 Z " fill="#FFFFFF" transform="translate(3008,1034)"/>
<path d="M0 0 C109.23 0 218.46 0 331 0 C331 331.32 331 662.64 331 1004 C221.77 1004 112.54 1004 0 1004 C0 672.68 0 341.36 0 0 Z M48 48 C48 109.05 48 170.1 48 233 C125.55 233 203.1 233 283 233 C283 171.95 283 110.9 283 48 C205.45 48 127.9 48 48 48 Z M48 281 C48 347 48 413 48 481 C125.55 481 203.1 481 283 481 C283 415 283 349 283 281 C205.45 281 127.9 281 48 281 Z M48 529 C48 594.67 48 660.34 48 728 C125.55 728 203.1 728 283 728 C283 662.33 283 596.66 283 529 C205.45 529 127.9 529 48 529 Z M48 776 C48 835.07 48 894.14 48 955 C125.55 955 203.1 955 283 955 C283 895.93 283 836.86 283 776 C205.45 776 127.9 776 48 776 Z " fill="#FFFFFF" transform="translate(2101,1450)"/>
<path d="M0 0 C109.56 0 219.12 0 332 0 C332 195.03 332 390.06 332 591 C222.44 591 112.88 591 0 591 C0 395.97 0 200.94 0 0 Z M49 48 C49 211.02 49 374.04 49 542 C126.55 542 204.1 542 284 542 C284 378.98 284 215.96 284 48 C206.45 48 128.9 48 49 48 Z " fill="#FFFFFF" transform="translate(1191,1860)"/>
<path d="M0 0 C22.955625 -0.061875 45.91125 -0.12375 69.5625 -0.1875 C76.78713135 -0.21481201 84.0117627 -0.24212402 91.45532227 -0.27026367 C100.33776855 -0.28381348 100.33776855 -0.28381348 104.50767517 -0.28633118 C107.39458764 -0.28910469 110.2813314 -0.30026039 113.16819763 -0.31672668 C116.86894399 -0.33755035 120.5694507 -0.34342877 124.2702502 -0.33921683 C126.24455076 -0.34050492 128.21882582 -0.35646618 130.19305515 -0.37328625 C151.46535803 -0.30030805 171.97173543 5.84209564 187.6796875 20.58984375 C200.45033345 33.85497599 204.42612867 49.97342183 204.36572266 67.87426758 C204.12686169 80.34215242 201.54171591 91.79982923 194 102 C193.39285156 102.82886719 192.78570313 103.65773438 192.16015625 104.51171875 C189.80596281 107.22351119 187.38387771 109.08057465 184.4375 111.125 C181.3850326 113.25385786 178.52844448 115.25872349 176 118 C176.72703125 118.30550781 177.4540625 118.61101563 178.203125 118.92578125 C193.72944478 125.99224731 203.1681976 136.71623413 209.33984375 152.40625 C215.98081323 173.0145254 213.54156679 195.22936642 203.9375 214.4375 C193.86494609 232.3490351 178.52196065 244.64754317 158.625 250.25 C146.83735214 253.33917668 134.98631086 254.29796783 122.83447266 254.22705078 C121.46108194 254.22643606 120.08769059 254.22670858 118.71430016 254.2277813 C115.08309321 254.22822721 111.45202188 254.21675544 107.82084656 254.20256042 C104.3957788 254.1910504 100.97074168 254.19062773 97.5456543 254.18920898 C87.57208536 254.17877314 77.5985409 254.15085063 67.625 254.125 C45.30875 254.08375 22.9925 254.0425 0 254 C0 170.18 0 86.36 0 0 Z M52 44 C52 62.48 52 80.96 52 100 C59.78327168 100.04221118 67.5661166 100.08224918 75.34940338 100.10350037 C78.97574377 100.11395999 82.6019871 100.12787987 86.22827148 100.15087891 C116.64141185 101.7831948 116.64141185 101.7831948 144.375 91.8125 C150.41577595 85.34024005 152.11316518 77.7137192 152 69 C151.24274646 61.57891527 148.61499143 56.67725313 143.375 51.3125 C127.92114435 39.11415201 96.66255822 43.87642371 78.4375 43.9375 C69.713125 43.958125 60.98875 43.97875 52 44 Z M52 142 C52 164.44 52 186.88 52 210 C66.911875 210.0309375 66.911875 210.0309375 82.125 210.0625 C85.23437988 210.071604 88.34375977 210.08070801 91.54736328 210.09008789 C94.05501258 210.09301277 96.56266237 210.09555997 99.0703125 210.09765625 C100.33738037 210.10277222 101.60444824 210.10788818 102.90991211 210.11315918 C127.81253147 210.52993032 127.81253147 210.52993032 149 199 C155.6407226 192.0629722 157.14352474 183.20445946 157.375 173.875 C157.12853442 164.84450128 155.36858952 158.44284164 149.0859375 151.7890625 C135.69222191 140.3015686 116.34196711 141.836877 99.8515625 141.90234375 C98.62719482 141.90335083 97.40282715 141.90435791 96.14135742 141.90539551 C91.63589521 141.91056585 87.1304465 141.92452626 82.625 141.9375 C67.465625 141.9684375 67.465625 141.9684375 52 142 Z " fill="#FFFFFF" transform="translate(1189,2618)"/>
<path d="M0 0 C19.14 0 38.28 0 58 0 C60.330625 4.08375 62.66125 8.1675 65.0625 12.375 C72.38649421 25.19800301 79.75285611 37.99612931 87.14111328 50.78222656 C90.26324605 56.18670645 93.38141204 61.59347412 96.5 67 C97.74998122 69.1666775 98.99998121 71.33334417 100.25 73.5 C107.75 86.5 115.25 99.5 122.75 112.5 C123.36931396 113.5734668 123.98862793 114.64693359 124.62670898 115.75292969 C125.87104998 117.90980903 127.11535364 120.06670992 128.35961914 122.22363281 C131.2361158 127.20991218 134.11293001 132.1960071 136.99118042 137.18127441 C137.99291394 138.91636728 138.99452189 140.65153257 139.99609375 142.38671875 C141.23933719 144.54050668 142.48280572 146.69416471 143.7265625 148.84765625 C148.17360093 156.55252509 152.5861594 164.27577895 157 172 C157.33 115.24 157.66 58.48 158 0 C175.16 0 192.32 0 210 0 C210 83.82 210 167.64 210 254 C191.52 254 173.04 254 154 254 C151.855 250.266875 149.71 246.53375 147.5 242.6875 C142.09012067 233.2910172 136.61119346 223.94034985 131.0625 214.625 C125.26622112 204.88959142 119.59672396 195.09109854 114.00027466 185.24029541 C109.09157757 176.60449978 104.08606831 168.03307164 99 159.5 C93.56825231 150.38697018 88.2401759 141.22381255 83 132 C75.82514245 119.37157899 68.4591209 106.86477318 61.00952148 94.39648438 C57.98167887 89.2788381 54.99615347 84.1362631 52 79 C51.67 136.75 51.34 194.5 51 254 C34.17 254 17.34 254 0 254 C0 170.18 0 86.36 0 0 Z " fill="#FFFFFF" transform="translate(2100,2618)"/>
<path d="M0 0 C62.7 0 125.4 0 190 0 C190 14.85 190 29.7 190 45 C145.12 45 100.24 45 54 45 C54 62.82 54 80.64 54 99 C95.25 99 136.5 99 179 99 C179 113.52 179 128.04 179 143 C137.75 143 96.5 143 54 143 C54 164.45 54 185.9 54 208 C100.86 208 147.72 208 196 208 C196 223.18 196 238.36 196 254 C131.32 254 66.64 254 0 254 C0 170.18 0 86.36 0 0 Z " fill="#FFFFFF" transform="translate(2638,2618)"/>
<path d="M0 0 C68.97 0 137.94 0 209 0 C209 14.85 209 29.7 209 45 C183.59 45 158.18 45 132 45 C132 113.97 132 182.94 132 254 C113.85 254 95.7 254 77 254 C77 185.03 77 116.06 77 45 C51.59 45 26.18 45 0 45 C0 30.15 0 15.3 0 0 Z " fill="#FFFFFF" transform="translate(3131,2618)"/>
<path d="M0 0 C17.82 0 35.64 0 54 0 C54 83.82 54 167.64 54 254 C36.18 254 18.36 254 0 254 C0 170.18 0 86.36 0 0 Z " fill="#FFFFFF" transform="translate(1720,2618)"/>
</svg>
